<?xml version="1.0" encoding="UTF-8"?>
<svg xmlns="http://www.w3.org/2000/svg" viewBox="0 0 512 512" width="512" height="512">
  <defs>
    <linearGradient id="bg" x1="0%" y1="0%" x2="100%" y2="100%">
      <stop offset="0%" style="stop-color:#2563eb;stop-opacity:1" />
      <stop offset="100%" style="stop-color:#4f46e5;stop-opacity:1" />
    </linearGradient>
    <style>
      .st0 { fill-rule: evenodd; }
      .st0, .st1 { fill: #fff; }
    </style>
  </defs>
  <rect width="512" height="512" fill="url(#bg)" rx="64"/>
  <g transform="translate(56, 240)">
    <g>
      <path class="st0" d="M46.77,54.05h-14c-4.97,0-8.62-.44-10.98-1.28-7.47-2.66-11.21-9.44-11.21-20.29V.74h11.1v31.38c0,3.43.13,5.63.38,6.57,1.1,4.35,4.99,6.53,11.67,6.53h13.05v8.82h-.01Z"/>
      <path class="st0" d="M85.41,31.9l-8.04-20.51-7.65,20.51h15.69ZM106.24,54.05h-12.34l-4.84-12.62h-22.95l-4.71,12.62h-11.75L71.9.74h11.83s22.51,53.31,22.51,53.31Z"/>
      <path class="st0" d="M176.61,32.23h-31.74v21.82h-11.06V33.78c0-6.88.41-11.90,1.20-15.07,2.33-9.19,10.57-13.79,24.73-13.79h16.87v9.34h-17.81c-9.29,0-13.95,4.30-13.95,12.92h31.74v9.21h.01Z"/>
      <path class="st0" d="M212.73,31.9l-8.01-20.51-7.65,20.51h15.68-.01ZM233.59,54.05h-12.37l-4.84-12.62h-22.95l-4.71,12.62h-11.75L199.22.74h11.83s22.51,53.31,22.51,53.31Z"/>
      <polygon class="st0" points="283.73 54.05 270.71 54.05 248.01 13.77 248.55 54.05 237.23 54.05 237.23 .74 251.15 .74 272.91 39.09 272.37 .74 283.73 .74 283.73 54.05"/>
      <polygon class="st0" points="334.54 10.13 317.33 10.13 317.33 54.05 305.99 54.05 305.99 10.13 288.85 10.13 288.85 .79 334.54 .79 334.54 10.13"/>
      <path class="st0" d="M368.52,31.9l-8.04-20.51-7.65,20.51h15.69ZM389.35,54.05h-12.34l-4.84-12.62h-22.95l-4.71,12.62h-11.72L354.99.74h11.80s22.51,53.31,22.51,53.31Z"/>
      <polygon class="st0" points="439.48 54.05 426.46 54.05 403.76 13.77 404.30 54.05 392.98 54.05 392.98 .74 406.90 .74 428.66 39.09 428.12 .74 439.48 .74 439.48 54.05"/>
      <path class="st0" d="M478.35,31.9l-8.01-20.51-7.65,20.51h15.66ZM499.21,54.05h-12.34l-4.84-12.62h-22.95l-4.71,12.62h-11.75L464.85.74h11.83s22.51,53.31,22.51,53.31Z"/>
    </g>
  </g>
</svg>